<svg xmlns="http://www.w3.org/2000/svg" xmlns:xlink="http://www.w3.org/1999/xlink" viewBox="0,0,256,256" width="50px" height="50px" fill-rule="nonzero"><g fill="#3087cf" fill-rule="nonzero" stroke="none" stroke-width="1" stroke-linecap="butt" stroke-linejoin="miter" stroke-miterlimit="10" stroke-dasharray="" stroke-dashoffset="0" font-family="none" font-weight="none" font-size="none" text-anchor="none" style="mix-blend-mode: normal"><g transform="scale(5.12,5.12)"><path d="M25,4.03125c-1.53516,0 -3.07031,0.58203 -4.24219,1.75391l-16.96875,16.97266c-2.34375,2.34375 -2.34375,6.14063 0,8.48438l11.99609,12c1.125,1.125 2.65234,1.75781 4.24609,1.75781h9.9375c1.59375,0 3.11719,-0.63281 4.24609,-1.75781l12,-12c2.33984,-2.34375 2.33984,-6.14062 0,-8.48437l-16.97266,-16.96875c-1.17187,-1.17578 -2.70703,-1.75781 -4.24219,-1.75781zM25,6.03125c1.06641,0 2.07422,0.41406 2.82813,1.17188l16.96875,16.96875c0.75781,0.75781 1.17188,1.76172 1.17188,2.82813c0,1.06641 -0.41406,2.07422 -1.17187,2.82813l-12,12c-0.75391,0.75781 -1.75781,1.17188 -2.82812,1.17188h-9.9375c-1.07031,0 -2.07422,-0.41406 -2.82812,-1.17187l-12,-12c-0.75781,-0.75391 -1.17187,-1.76172 -1.17187,-2.82812c0,-1.06641 0.41406,-2.07422 1.17188,-2.82812l16.96875,-16.96875c0.75391,-0.75781 1.76172,-1.17187 2.82813,-1.17187zM24.29297,11.57422c-0.51562,-0.00391 -1.02734,0.19141 -1.41406,0.57813l-12.72656,12.72656c-0.77344,0.77344 -0.77344,2.05469 0,2.82813l0.94922,0.94922c0.375,0.37891 0.88672,0.58594 1.41406,0.58594h2.34375c0.52734,0 1.03906,-0.21094 1.41016,-0.58594l11.55859,-11.55469v-0.00391c0.77344,-0.76953 0.77344,-2.05469 0,-2.82812l-2.12109,-2.11719c-0.38672,-0.38672 -0.90234,-0.57812 -1.41406,-0.57812zM24.29297,13.5625l2.12109,2.125l-11.55469,11.55469h-2.34375l-0.95312,-0.94531v-0.00391zM24.29297,22.88672c-0.51562,-0.00391 -1.03125,0.19141 -1.41797,0.57813l-7.06641,7.07031c-0.77344,0.77344 -0.77344,2.05469 0,2.82813l0.94922,0.94922v0.00391c0.375,0.37109 0.88281,0.58203 1.41406,0.58203h2.34375c0.52734,0 1.03906,-0.21094 1.41016,-0.58594l5.90234,-5.89844c0.77344,-0.77344 0.76953,-2.05469 0,-2.82812l-2.12109,-2.12109c-0.38672,-0.38672 -0.89844,-0.57812 -1.41406,-0.57812zM24.29297,24.87891l2.11719,2.12109l-5.89453,5.89844h-2.34375l-0.95312,-0.94531zM25,33.49219c-0.51562,0 -1.03125,0.19531 -1.41797,0.58203l-2.11719,2.11719c-0.77344,0.77344 -0.77344,2.05859 0,2.82813l0.94922,0.94922c0.375,0.37891 0.88672,0.58984 1.41406,0.58984h2.34375c0.52734,0 1.03906,-0.21484 1.41406,-0.58984l0.94922,-0.94922c0.77344,-0.76953 0.77344,-2.05469 -0.00391,-2.82812l-2.11719,-2.11719c-0.38672,-0.39062 -0.89844,-0.58203 -1.41406,-0.58203zM25,35.48438l2.12109,2.125l-0.94922,0.94922h-2.34375l-0.94922,-0.94922z"></path></g></g></svg>